<svg xmlns="http://www.w3.org/2000/svg" version="1.1" viewBox="-5.0 -10.0 110.0 135.0">
 <path d="m48.441 33.301c2.3359 0 4.7305-1.0586 6.5781-2.9062 1.6133-1.6133 2.6289-3.6406 2.8555-5.7148 0.23438-2.1367-0.38672-4.0625-1.75-5.4258-1.1602-1.1602-2.7812-1.7969-4.5625-1.7969-2.3359 0-4.7305 1.0586-6.5781 2.9023-1.6133 1.6133-2.6289 3.6445-2.8555 5.7148-0.23438 2.1367 0.38672 4.0625 1.75 5.4258 1.1562 1.1641 2.7773 1.8008 4.5625 1.8008zm7.8789-8.7891c-0.19141 1.7188-1.043 3.418-2.4062 4.7812-1.5547 1.5547-3.5508 2.4453-5.4727 2.4453-0.68359 0-1.3203-0.11328-1.8945-0.33594 0.89844-0.30078 1.7227-0.80469 2.4141-1.4961 1.2109-1.2109 1.8594-2.8203 1.8242-4.5469-0.027344-1.2852 0.45703-2.4922 1.3672-3.4023 0.83203-0.83203 1.9102-1.3008 3.082-1.3594 0.86328 1.0078 1.2539 2.3789 1.0859 3.9141zm-10.23-3.0469c1.5547-1.5547 3.5508-2.4453 5.4727-2.4453 0.6875 0 1.3242 0.11328 1.9023 0.33594-0.89844 0.30078-1.7305 0.80469-2.4219 1.4961-1.2109 1.2148-1.8594 2.8281-1.8242 4.5508 0.027344 1.2852-0.45703 2.4883-1.3672 3.3984-0.82812 0.82812-1.9102 1.3047-3.082 1.3594-1.9023-2.2031-1.3516-6.0234 1.3203-8.6953z"/>
 <path d="m83.121 28.25v-6.8906c0-0.43359-0.35156-0.78125-0.78125-0.78125h-17.453c-2.0664-6.4141-8.0977-10.848-14.891-10.848-6.7852 0-12.812 4.4336-14.879 10.848h-17.457c-0.42969 0-0.78125 0.34766-0.78125 0.78125v6.8906c0 0.43359 0.35156 0.78125 0.78125 0.78125h2.6758l-3.4336 13.668c-0.007813 0.027343 0.003906 0.054687 0 0.082031-0.003906 0.039062-0.023438 0.070312-0.023438 0.10938v2.6211c0 2.6172 1.4375 5.0195 3.6758 6.2773v28.887h-2.8945c-0.42969 0-0.78125 0.34766-0.78125 0.78125v8.0352c0 0.43359 0.35156 0.78125 0.78125 0.78125h64.684c0.42969 0 0.78125-0.34766 0.78125-0.78125v-8.0352c0-0.43359-0.35156-0.78125-0.78125-0.78125h-2.8945l-0.003907-28.887c2.2422-1.2656 3.6758-3.6641 3.6758-6.2773v-2.6211c0-0.015625-0.007813-0.027344-0.007813-0.039063-0.070312-0.80859-1.2266-5.4492-3.4336-13.82h2.6602c0.43359 0 0.78125-0.34766 0.78125-0.78125zm-14.5 17.262c0 3.1328-2.5508 5.6836-5.6836 5.6836s-5.6836-2.5508-5.6836-5.6836l-0.003906-1.8398h11.367zm-25.871 0c0 3.1328-2.5508 5.6836-5.6836 5.6836-3.1328 0-5.6836-2.5508-5.6836-5.6836v-1.8398h11.367zm-7.9609-16.48c1.1172 4.6797 4.2969 8.5547 8.6719 10.566l-0.55859 2.5117h-11.336l2.8945-13.078zm20.277 11.137 0.42969 1.9414h-10.992l0.42969-1.9336c1.6328 0.55469 3.3281 0.85547 5.0625 0.85547 1.7539 0 3.4531-0.30078 5.0703-0.86328zm-10.754 3.5039h11.379v1.8398c0 3.1328-2.5547 5.6836-5.6953 5.6836-3.1328 0-5.6836-2.5508-5.6836-5.6836zm12.785-1.5625-0.55859-2.5195c4.375-2.0078 7.5586-5.8828 8.6719-10.559h0.32422l2.8984 13.078zm-7.1016-30.816c6.2969 0 11.875 4.2266 13.57 10.277 0.34766 1.2305 0.52344 2.5156 0.52344 3.8125 0 0.94141-0.089844 1.8516-0.26562 2.7188-0.91016 4.6602-4.082 8.5117-8.4844 10.312-3.3398 1.3867-7.25 1.4062-10.68 0.007813-4.3945-1.8008-7.5664-5.6562-8.4805-10.32 0-0.003906 0-0.007812-0.003907-0.011718-0.0625-0.30078-0.097656-0.61719-0.14062-0.92969-0.019531-0.14453-0.046875-0.27734-0.058594-0.42578-0.042968-0.44141-0.066406-0.89062-0.066406-1.3516 0-0.32422 0.011719-0.64844 0.03125-0.96875 0.066406-0.96484 0.22656-1.918 0.48828-2.8477 1.6992-6.0469 7.2773-10.273 13.566-10.273zm-31.555 10.848h16.246c0 0.007813 0 0.015625-0.003906 0.023437-0.097656 0.46875-0.16797 0.94141-0.22266 1.418-0.011719 0.11719-0.023438 0.23047-0.035157 0.34766-0.042969 0.48047-0.074219 0.96484-0.074219 1.4531 0 0.46484 0.027344 0.92188 0.066407 1.3711 0.011719 0.11719 0.023437 0.23438 0.035156 0.35156 0.011719 0.12109 0.019531 0.24219 0.035156 0.36328h-16.047zm3.5039 6.8906h10.918l-2.8984 13.078h-11.305zm-3.5039 16.48v-1.8398h11.379v1.8398c0 3.1328-2.5547 5.6836-5.6953 5.6836-0.86719 0-1.6914-0.1875-2.457-0.56641-1.9609-0.92578-3.2266-2.9336-3.2266-5.1172zm63.117 43.195h-63.117v-6.4727h7.3906l18.113 0.003906h37.613zm-38.395-29.152v21.117h-7.4922v-21.117zm-9.0547 21.121h-7.4961v-21.121h7.4961zm10.617 0v-21.902c0-0.43359-0.35156-0.78125-0.78125-0.78125h-18.113c-0.42969 0-0.78125 0.34766-0.78125 0.78125v21.898h-2.9336v-28.211c0.64453 0.1875 1.3125 0.29687 2.0078 0.29687 2.8281 0 5.2773-1.6289 6.4766-3.9922 1.1953 2.3633 3.6406 3.9922 6.4648 3.9922 2.8242 0 5.2695-1.6289 6.4648-3.9922 1.1953 2.3633 3.6406 3.9922 6.4648 3.9922 2.8281 0 5.2773-1.6289 6.4766-3.9922 1.1953 2.3633 3.6406 3.9922 6.4648 3.9922s5.2695-1.6289 6.4648-3.9922c1.1953 2.3633 3.6445 3.9922 6.4766 3.9922 0.69531 0 1.3672-0.10547 2.0078-0.29297v28.211l-33.16-0.003906zm36.832-35.164c0 2.1836-1.2656 4.1914-3.2383 5.1211-0.75391 0.37109-1.5742 0.5625-2.4414 0.5625-3.1406 0-5.6953-2.5508-5.6953-5.6836v-1.8398h11.379zm-0.16016-3.4023h-11.363l-2.8945-13.078h10.926c1.1641 4.4258 2.8164 10.797 3.332 13.078zm0.16016-14.641h-16.047c0.015625-0.12109 0.023437-0.24219 0.035156-0.36328 0.011719-0.11719 0.023437-0.23047 0.035156-0.34766 0.039063-0.44922 0.066407-0.90625 0.066407-1.3711 0-0.48828-0.03125-0.97266-0.074219-1.4531-0.011719-0.11719-0.023438-0.23438-0.035157-0.35156-0.054687-0.47656-0.125-0.94922-0.22266-1.418 0-0.007812 0-0.011718-0.003906-0.019531h16.246z"/>
 <path d="m74.168 57.992h-25.441c-0.42969 0-0.78125 0.34766-0.78125 0.78125v15.285c0 0.43359 0.35156 0.78125 0.78125 0.78125h25.441c0.42969 0 0.78125-0.34766 0.78125-0.78125v-15.285c0-0.42969-0.35156-0.78125-0.78125-0.78125zm-0.78125 15.285h-23.879v-13.723h23.879z"/>
<text x="0.0" y="117.5" font-size="5.0" font-weight="bold" font-family="Arbeit Regular, Helvetica, Arial-Unicode, Arial, Sans-serif" fill="#000000">Created by Juney Fath</text><text x="0.0" y="122.5" font-size="5.0" font-weight="bold" font-family="Arbeit Regular, Helvetica, Arial-Unicode, Arial, Sans-serif" fill="#000000">from Noun Project</text></svg>